<?xml version="1.0" encoding="UTF-8" standalone="no"?>
<!-- Created with Inkscape (http://www.inkscape.org/) -->

<svg
   xmlns:dc="http://purl.org/dc/elements/1.1/"
   xmlns:cc="http://creativecommons.org/ns#"
   xmlns:rdf="http://www.w3.org/1999/02/22-rdf-syntax-ns#"
   xmlns:svg="http://www.w3.org/2000/svg"
   xmlns="http://www.w3.org/2000/svg"
   xmlns:sodipodi="http://sodipodi.sourceforge.net/DTD/sodipodi-0.dtd"
   xmlns:inkscape="http://www.inkscape.org/namespaces/inkscape"
   width="122.24577mm"
   height="26.458334mm"
   viewBox="0 0 433.15429 93.750002"
   id="svg2"
   version="1.1"
   inkscape:version="0.91 r13725"
   sodipodi:docname="logo.svg">
  <defs
     id="defs4" />
  <sodipodi:namedview
     id="base"
     pagecolor="#ffffff"
     bordercolor="#666666"
     borderopacity="1.0"
     inkscape:pageopacity="0.0"
     inkscape:pageshadow="2"
     inkscape:zoom="1.4"
     inkscape:cx="331.34973"
     inkscape:cy="-82.308929"
     inkscape:document-units="px"
     inkscape:current-layer="layer1"
     showgrid="false"
     fit-margin-top="0"
     fit-margin-left="0"
     fit-margin-right="0"
     fit-margin-bottom="0"
     showguides="false"
     inkscape:window-width="1366"
     inkscape:window-height="715"
     inkscape:window-x="-8"
     inkscape:window-y="-8"
     inkscape:window-maximized="1" />
  <metadata
     id="metadata7">
    <rdf:RDF>
      <cc:Work
         rdf:about="">
        <dc:format>image/svg+xml</dc:format>
        <dc:type
           rdf:resource="http://purl.org/dc/dcmitype/StillImage" />
        <dc:title></dc:title>
      </cc:Work>
    </rdf:RDF>
  </metadata>
  <g
     inkscape:label="Layer 1"
     inkscape:groupmode="layer"
     id="layer1"
     transform="translate(-130.10673,-431.2796)">
    <g
       transform="translate(4.7412109e-6,0)"
       style="font-style:normal;font-weight:normal;font-size:40px;line-height:125%;font-family:sans-serif;letter-spacing:0px;word-spacing:0px;fill:#ffffff;fill-opacity:1;stroke:none;stroke-width:1px;stroke-linecap:butt;stroke-linejoin:miter;stroke-opacity:1"
       id="text3352">
      <path
         d="m 182.98759,470.61066 q -1.28174,4.50439 -2.05078,8.42285 -0.76905,3.88183 -0.76905,6.73828 0,2.49023 1.02539,3.91846 1.06202,1.3916 3.47901,1.3916 0.91552,0 2.19726,-0.5127 1.28174,-0.54931 2.92969,-1.68457 1.64795,-1.13525 3.66211,-2.92968 2.05078,-1.79444 4.54102,-4.28467 0.10986,0.21972 0.43945,1.02539 0.29297,0.6958 0.80566,2.12402 0.54932,1.3916 1.50147,3.84522 -2.74658,2.89306 -5.52979,5.09033 -2.74658,2.19726 -5.3833,3.69873 -2.6001,1.46484 -5.01709,2.19726 -2.38037,0.76905 -4.39453,0.76905 -2.30713,0 -4.28467,-0.87891 -1.97754,-0.84228 -3.44238,-2.49023 -1.42822,-1.64795 -2.27051,-4.02832 -0.84228,-2.417 -0.84228,-5.49317 0,-1.06201 0.21972,-2.67334 0.21973,-1.61133 0.62256,-3.66211 0.43945,-2.05078 1.02539,-4.46777 0.62256,-2.45361 1.35498,-5.16357 -4.90722,0.51269 -9.41162,0.95214 -4.50439,0.43946 -8.97217,0.84229 -1.02539,3.07617 -2.05078,6.04248 -0.98877,2.92969 -1.94092,5.52978 -0.91552,2.56348 -1.72119,4.72413 -0.76904,2.12402 -1.31836,3.62548 -1.79443,3.88184 -3.51562,5.49317 -1.68457,1.61133 -3.03955,1.61133 -0.87891,0 -1.72119,-0.29297 -0.84229,-0.29297 -1.50147,-0.84229 -0.65918,-0.54931 -1.06201,-1.31836 -0.36621,-0.76904 -0.36621,-1.72119 0,-0.58594 0.14648,-1.13525 1.53809,-5.60303 3.33252,-10.80323 1.83106,-5.23681 3.69873,-10.18066 -2.01416,0 -3.88183,-0.29297 -1.83106,-0.32959 -3.40576,-1.09863 -1.57471,-0.76904 -2.81983,-2.12402 -1.20849,-1.35498 -2.01416,-3.44239 -0.14648,-0.65918 -0.25635,-1.17187 -0.0732,-0.5127 -0.0732,-1.02539 0,-1.61133 1.13526,-1.61133 0.6958,0 1.53808,0.76904 0.84229,0.73242 2.16065,2.38037 1.72119,-0.0732 3.44238,-0.10986 1.72119,-0.0366 3.69873,-0.0366 l 3.51562,0 q 1.31836,-3.40576 2.49024,-6.55518 1.20849,-3.18603 2.23389,-6.22558 0.62255,-1.94092 0.98876,-3.88184 0.36622,-1.94092 0.36622,-3.69873 0,-1.42822 -0.25635,-2.63672 -0.25635,-1.20849 -0.84229,-2.05078 -0.58593,-0.84228 -1.50146,-1.31836 -0.91553,-0.47607 -2.27051,-0.47607 -1.09863,0 -2.56348,0.36621 -1.42822,0.36621 -3.18603,1.20849 -1.75781,0.80567 -3.84522,2.16065 -2.05078,1.31836 -4.46777,3.2959 -0.84228,0.6958 -1.57471,0.98877 -0.6958,0.29297 -1.28173,0.29297 -0.29297,0 -0.43946,-0.95215 -0.14648,-0.98877 -0.14648,-2.417 0,-1.90429 0.8789,-3.62548 0.91553,-1.72119 2.417,-3.14942 1.50146,-1.46484 3.44238,-2.63672 1.97754,-1.20849 4.02832,-2.01416 2.0874,-0.84228 4.13818,-1.28173 2.05078,-0.43946 3.77198,-0.43946 2.56347,0 4.90722,0.6958 2.34375,0.6958 4.10156,2.23389 1.79444,1.53809 2.81983,3.9917 1.06201,2.45361 1.06201,5.96924 0,1.64795 -0.40283,4.02832 -0.36621,2.38037 -1.02539,5.23681 -0.65918,2.81983 -1.57471,6.04248 -0.87891,3.18604 -1.9043,6.51856 3.77198,-0.25635 8.4961,-0.5127 4.72412,-0.25634 9.48486,-0.51269 1.86768,-6.11572 4.10156,-12.63428 2.27051,-6.55517 4.79737,-12.854 0.84228,-2.08741 2.19726,-3.33252 1.3916,-1.24512 3.25928,-1.24512 0.76904,0 1.46484,0.21973 0.73243,0.21972 1.28174,0.6958 0.54932,0.43945 0.84229,1.17187 0.32959,0.6958 0.32959,1.64795 0,0.84229 -0.10987,1.97754 -0.10986,1.09863 -0.58593,2.38037 -0.84229,2.27051 -1.79444,4.87061 -0.95215,2.56347 -1.94092,5.31006 -0.95214,2.70996 -1.94091,5.5664 -0.95215,2.85645 -1.83106,5.67627 2.30713,-0.14648 4.02832,-0.25635 1.72119,-0.14648 2.6001,-0.21972 0.40283,-0.0366 0.73242,-0.0366 0.36621,-0.0366 0.65918,-0.0366 1.09863,0 1.75781,0.21972 0.6958,0.21973 1.06202,0.62256 0.40283,0.40283 0.54931,0.95215 0.14649,0.54932 0.14649,1.24512 0,0.76904 -0.32959,1.28173 -0.32959,0.5127 -0.84229,0.84229 -0.47607,0.29297 -1.02539,0.43945 -0.54932,0.10987 -1.02539,0.14649 -1.02539,0.10986 -1.46484,0.1831 -0.43946,0.0366 -0.62256,0.0732 -0.18311,0 -0.25635,0.0366 -0.0366,0 -0.25635,0.0366 -0.21972,0 -0.76904,0.0366 -0.54932,0.0366 -1.68457,0.14648 -1.31836,0.14649 -2.6001,0.25635 -1.24512,0.10986 -2.49023,0.21973 z"
         style="font-style:normal;font-variant:normal;font-weight:normal;font-stretch:normal;font-size:75px;font-family:Pacifico;-inkscape-font-specification:Pacifico;fill:#ffffff"
         id="path3359" />
      <path
         d="m 211.55204,498.07648 q -3.44238,0 -6.04248,-1.24512 -2.56348,-1.24512 -4.28467,-3.33252 -1.72119,-2.12402 -2.6001,-4.87061 -0.84228,-2.7832 -0.84228,-5.82275 0,-2.05078 0.40283,-4.32129 0.40283,-2.30713 1.2085,-4.50439 0.84228,-2.19727 2.0874,-4.17481 1.24512,-2.01416 2.89307,-3.51562 1.68457,-1.53809 3.73535,-2.41699 2.0874,-0.91553 4.61426,-0.91553 2.05078,0 3.80859,0.65918 1.75781,0.65918 3.03955,1.86767 1.31836,1.17188 2.05078,2.85645 0.73242,1.68457 0.73242,3.77197 0,2.27051 -1.13525,4.54102 -1.09863,2.27051 -3.07617,4.28467 -1.97754,2.01416 -4.72412,3.58886 -2.70997,1.57471 -5.896,2.45362 0.54932,0.98877 1.06201,1.64794 0.54932,0.65918 1.09863,1.0254 0.54932,0.36621 1.13526,0.51269 0.62256,0.14649 1.31836,0.14649 2.19726,0 4.61426,-0.87891 2.45361,-0.87891 4.76074,-2.19727 2.30713,-1.31836 4.35791,-2.85644 2.05078,-1.57471 3.479,-2.96631 l 4.72412,4.90723 q -3.22265,3.33252 -6.84814,5.89599 -1.57471,1.09863 -3.40576,2.16065 -1.79444,1.06201 -3.8086,1.90429 -1.97754,0.80567 -4.13818,1.31836 -2.12402,0.47608 -4.32129,0.47608 z m -4.87061,-17.21192 q 1.31836,0 2.85645,-0.65918 1.57471,-0.6958 2.89307,-1.75781 1.35498,-1.06201 2.2705,-2.30713 0.91553,-1.24512 0.91553,-2.41699 0,-1.64795 -0.62256,-2.70996 -0.58593,-1.06201 -1.46484,-1.06201 -1.57471,0 -2.70996,0.58593 -1.09863,0.58594 -1.86768,1.53809 -0.73242,0.91553 -1.20849,2.12402 -0.43946,1.17188 -0.6958,2.38038 -0.21973,1.20849 -0.29297,2.34375 -0.0733,1.13525 -0.0733,1.94091 z"
         style="font-style:normal;font-variant:normal;font-weight:normal;font-stretch:normal;font-size:75px;font-family:Pacifico;-inkscape-font-specification:Pacifico;fill:#ffffff"
         id="path3361" />
      <path
         d="m 228.03153,490.42267 q 0,-2.41699 0.29297,-5.56641 0.29297,-3.18603 0.73242,-6.44531 0.43946,-3.2959 0.98877,-6.33545 0.54932,-3.03955 1.06201,-5.20019 0.40284,-1.68458 1.53809,-2.81983 1.17188,-1.13525 3.14941,-1.13525 1.97754,0 2.74659,1.20849 0.76904,1.2085 0.76904,3.22266 0,0.54932 -0.10986,1.50146 -0.10987,0.91553 -0.29297,2.05079 -0.14649,1.09863 -0.32959,2.30712 -0.18311,1.17188 -0.36621,2.19727 -0.14649,0.98877 -0.25635,1.75781 -0.10986,0.73242 -0.10986,0.98877 l 0.73242,0 q 0.21972,-0.40283 0.6958,-1.28174 0.47607,-0.91552 1.09863,-2.0874 0.62256,-1.17187 1.31836,-2.45361 0.73242,-1.31836 1.35498,-2.49024 0.62256,-1.20849 1.13525,-2.12402 0.5127,-0.91553 0.76905,-1.35498 1.17187,-1.97754 2.67334,-2.70996 1.50146,-0.73242 3.33252,-0.73242 1.83105,0 2.89306,1.53808 1.09864,1.53809 1.09864,4.24805 0,0.40283 -0.18311,1.35498 -0.14648,0.95215 -0.40283,2.27051 -0.25635,1.31836 -0.58594,2.89306 -0.29297,1.57471 -0.54932,3.22266 -0.25634,1.64795 -0.43945,3.25928 -0.14648,1.61133 -0.14648,2.96631 0,2.2705 0.54931,3.73535 0.58594,1.46484 1.79444,1.46484 0.54931,0 1.24511,-0.32959 0.73243,-0.32959 1.53809,-0.84228 0.84229,-0.54932 1.68457,-1.24512 0.87891,-0.6958 1.72119,-1.42822 1.94092,-1.72119 4.06494,-3.88184 l 0.62256,8.20313 -1.83105,1.3916 q -1.50147,1.13525 -3.07617,2.27051 -1.53809,1.13525 -3.22266,2.05078 -1.68457,0.8789 -3.51563,1.46484 -1.83105,0.54932 -3.84521,0.54932 -2.01416,0 -3.40576,-2.89307 -1.35498,-2.92969 -1.35498,-8.53271 0,-2.19727 0.29297,-4.72413 0.29296,-2.56347 0.73242,-5.49316 l -0.58594,0 -9.59473,19.04297 q -0.73242,1.50146 -1.64795,2.05078 -0.91552,0.54932 -2.12402,0.54932 -1.50146,0 -2.41699,-0.62256 -0.91553,-0.65918 -1.42822,-1.72119 -0.47608,-1.09864 -0.65918,-2.45362 -0.14649,-1.3916 -0.14649,-2.85644 z"
         style="font-style:normal;font-variant:normal;font-weight:normal;font-stretch:normal;font-size:75px;font-family:Pacifico;-inkscape-font-specification:Pacifico;fill:#ffffff"
         id="path3363" />
      <path
         d="m 262.01591,490.42267 q 0,-1.61133 0.1831,-3.73535 0.18311,-2.16065 0.47608,-4.54102 0.32959,-2.38037 0.73242,-4.83398 0.43945,-2.49024 0.91553,-4.72412 0.47607,-2.23389 0.95214,-4.10157 0.47608,-1.86767 0.95215,-3.07617 0.29297,-0.80566 0.58594,-1.28174 0.29297,-0.47607 0.65918,-0.73242 0.40283,-0.29297 0.95215,-0.36621 0.58594,-0.10986 1.42822,-0.10986 0.95215,0 1.46485,0.10986 0.54931,0.0732 0.80566,0.43945 0.25635,0.32959 0.29297,0.98877 0.0732,0.65918 0.0732,1.79444 0,1.35498 0,3.2959 0,1.90429 0.0732,3.77197 l 0.40283,0 q 0.73243,-1.46485 1.64795,-3.25928 0.91553,-1.83105 2.12403,-3.40576 1.20849,-1.57471 2.74658,-2.63672 1.53808,-1.09863 3.55225,-1.09863 0.6958,0 1.35498,0.25634 0.65918,0.21973 1.13525,0.65918 0.51269,0.43946 0.80566,1.09864 0.29297,0.62256 0.29297,1.42822 0,0.62256 -0.1831,1.75781 -0.18311,1.09864 -0.40284,2.34375 -0.21972,1.2085 -0.40283,2.38037 -0.1831,1.13526 -0.1831,1.9043 0,1.31836 0.25634,2.19727 0.25635,0.8789 0.65918,1.42822 0.43946,0.51269 0.95215,0.73242 0.54932,0.21973 1.13526,0.21973 1.64795,0 3.40576,-0.73242 1.75781,-0.73243 3.22265,-1.64795 1.7212,-1.06202 3.36915,-2.417 l -0.54932,8.56934 q -0.95215,0.62256 -2.16065,1.3916 -1.20849,0.76904 -2.60009,1.46485 -1.35498,0.65917 -2.85645,1.13525 -1.46484,0.43945 -3.00293,0.43945 -2.74658,0 -4.43115,-1.09863 -1.68457,-1.13525 -2.67334,-2.92969 -0.98877,-1.83105 -1.46484,-4.06494 -0.47608,-2.27051 -0.76905,-4.57764 l -0.58593,0 -6.55518,18.27393 q -0.5127,1.42822 -0.98877,2.38037 -0.43945,0.91553 -0.91553,1.50147 -0.47607,0.58593 -1.02539,0.84228 -0.54931,0.21973 -1.20849,0.21973 -1.50147,0 -2.417,-0.62256 -0.91552,-0.65918 -1.42822,-1.72119 -0.47607,-1.09864 -0.65918,-2.45362 -0.14648,-1.3916 -0.14648,-2.85644 z"
         style="font-style:normal;font-variant:normal;font-weight:normal;font-stretch:normal;font-size:75px;font-family:Pacifico;-inkscape-font-specification:Pacifico;fill:#ffffff"
         id="path3365" />
      <path
         d="m 315.92216,490.27618 q -1.31836,1.2085 -3.2959,2.6001 -1.94092,1.35498 -4.21143,2.52686 -2.2705,1.13525 -4.65088,1.90429 -2.34375,0.76905 -4.46777,0.76905 -1.9043,0 -3.22266,-0.5127 -1.28173,-0.54931 -2.0874,-1.50146 -0.80566,-0.95215 -1.17187,-2.30713 -0.32959,-1.3916 -0.32959,-3.03955 0,-2.30713 0.51269,-5.34668 0.54932,-3.07617 1.31836,-6.33545 0.76904,-3.2959 1.61133,-6.55518 0.87891,-3.25927 1.53809,-6.00586 0.25634,-0.95215 1.02539,-1.61132 0.76904,-0.69581 1.72119,-1.09864 0.98877,-0.43945 2.01416,-0.62256 1.06201,-0.21972 1.9043,-0.21972 1.53808,0 2.0874,0.58593 0.54931,0.54932 0.54931,1.50147 0,0.80566 -0.36621,2.34375 -0.36621,1.50146 -0.91552,3.44238 -0.54932,1.9043 -1.17188,4.13819 -0.62256,2.19726 -1.17187,4.43115 -0.54932,2.19726 -0.91553,4.32129 -0.36621,2.0874 -0.36621,3.77197 0,1.64795 0.36621,2.63672 0.36621,0.95215 1.50146,0.95215 1.31836,0 2.92969,-0.91553 1.61133,-0.91553 3.25928,-2.19727 1.64795,-1.31836 3.22265,-2.70996 1.57471,-1.3916 2.78321,-2.38037 l 0,7.43408 z M 299.55253,452.6297 q 0,-0.84229 0.36621,-1.9043 0.36621,-1.06201 1.17187,-1.97754 0.84229,-0.95214 2.19727,-1.5747 1.3916,-0.65918 3.44238,-0.65918 1.28174,0 2.41699,0.29297 1.13526,0.29296 1.97754,0.91552 0.84229,0.58594 1.31836,1.57471 0.5127,0.98877 0.5127,2.34375 0,1.24512 -0.40283,2.41699 -0.40284,1.17188 -1.28174,2.0874 -0.87891,0.91553 -2.23389,1.50147 -1.31836,0.54932 -3.18603,0.54932 -3.22266,0 -4.76075,-1.50147 -1.53808,-1.53808 -1.53808,-4.06494 z"
         style="font-style:normal;font-variant:normal;font-weight:normal;font-stretch:normal;font-size:75px;font-family:Pacifico;-inkscape-font-specification:Pacifico;fill:#ffffff"
         id="path3367" />
      <path
         d="m 322.66044,492.2171 q -0.43945,0.0732 -0.87891,0.10987 -0.40283,0.0366 -0.80566,0.0366 -2.52686,0 -4.57764,-1.06202 -2.05078,-1.09863 -3.55224,-2.89306 -1.46485,-1.83106 -2.27051,-4.17481 -0.80567,-2.38037 -0.80567,-4.90722 0,-3.44239 1.39161,-6.44532 1.42822,-3.00293 3.73535,-5.20019 2.30713,-2.23389 5.23681,-3.479 2.96631,-1.28174 6.04248,-1.28174 2.78321,0 4.76075,0.80566 2.01416,0.76904 3.25927,2.0874 1.28174,1.31836 1.86768,3.07618 0.58594,1.72119 0.58594,3.62548 0,0.65918 -0.10987,1.39161 -0.0732,0.6958 -0.25634,1.31835 -0.29297,0.87891 -0.69581,2.23389 -0.40283,1.31836 -0.84228,2.81983 -0.40283,1.46484 -0.84229,2.9663 -0.43945,1.46485 -0.76904,2.67334 -0.32959,1.17188 -0.54932,1.94092 -0.21972,0.76904 -0.21972,0.84229 -0.0366,-0.0366 0.10986,0.54931 0.14649,0.54932 0.36621,1.50147 0.43946,0.1831 0.84229,0.25635 0.40283,0.0366 0.6958,0.0366 1.31836,0 3.00293,-0.91553 1.72119,-0.91553 3.51562,-2.19727 1.79444,-1.31836 3.47901,-2.70996 1.68457,-1.3916 2.89306,-2.38037 l 0,8.20313 q -1.09863,1.06201 -2.41699,2.12402 -1.31836,1.06201 -2.89307,2.01416 -1.5747,0.91553 -3.479,1.64795 -1.9043,0.6958 -4.21142,1.02539 0.51269,2.85645 0.8789,6.00586 0.40283,3.14941 0.40283,5.93262 0,3.51562 -0.76904,6.33545 -0.73242,2.81982 -2.23389,4.79736 -1.46484,1.97754 -3.66211,3.03955 -2.16064,1.06201 -5.05371,1.06201 -1.24511,0 -2.52685,-0.54931 -1.24512,-0.54932 -2.27051,-1.61133 -0.98877,-1.06201 -1.61133,-2.6001 -0.62256,-1.50146 -0.62256,-3.44238 0,-2.19727 0.58594,-5.12696 0.58594,-2.92968 1.46484,-6.18896 0.87891,-3.25928 1.9043,-6.70166 1.02539,-3.40576 1.9043,-6.5918 z m 1.17187,-4.6875 q 0.0732,-0.1831 0.29297,-0.98877 0.25635,-0.84228 0.58594,-2.01416 0.36621,-1.20849 0.76904,-2.63672 0.40283,-1.46484 0.84229,-2.9663 0.98877,-3.47901 2.19726,-7.8003 -0.32959,-0.32959 -0.73242,-0.58594 -0.32959,-0.21972 -0.76904,-0.40283 -0.40283,-0.1831 -0.84229,-0.1831 -2.01416,0 -3.55224,0.91552 -1.50147,0.91553 -2.56348,2.34375 -1.02539,1.39161 -1.57471,3.03956 -0.51269,1.64794 -0.51269,3.07617 0,1.17187 0.21973,2.56347 0.21972,1.35498 0.84228,2.56348 0.65918,1.2085 1.79443,2.0874 1.13526,0.84229 3.00293,0.98877 z m 4.6875,9.33838 q -0.1831,0.5127 -0.62256,1.94092 -0.43945,1.42822 -1.02539,3.33252 -0.58593,1.9043 -1.24511,4.06494 -0.62256,2.16064 -1.13526,4.13818 -0.51269,1.97754 -0.8789,3.58887 -0.32959,1.61133 -0.32959,2.38037 0,0.73242 0.36621,1.2085 0.36621,0.47607 0.98877,0.47607 1.42822,0 2.38037,-0.8789 0.95215,-0.84229 1.53808,-2.30713 0.62256,-1.42823 0.87891,-3.36914 0.25635,-1.9043 0.25635,-3.9917 0,-2.6001 -0.29297,-5.41992 -0.25635,-2.78321 -0.87891,-5.16358 z"
         style="font-style:normal;font-variant:normal;font-weight:normal;font-stretch:normal;font-size:75px;font-family:Pacifico;-inkscape-font-specification:Pacifico;fill:#ffffff"
         id="path3369" />
      <path
         d="m 371.14677,465.3006 q 0,0.98877 -0.21973,2.70996 -0.21973,1.68457 -0.58594,3.73535 -0.32959,2.01416 -0.73242,4.17481 -0.40283,2.16064 -0.76904,4.02832 -0.32959,1.86767 -0.54932,3.29589 -0.21973,1.39161 -0.21973,1.94092 0,1.02539 0.0366,1.9043 0.0366,0.84228 0.21972,1.50146 0.18311,0.62256 0.54932,0.98877 0.40283,0.32959 1.13525,0.32959 0.80567,0 1.94092,-0.40283 1.17188,-0.40283 2.45361,-1.06201 1.31836,-0.6958 2.67334,-1.53809 1.35498,-0.8789 2.56348,-1.83105 1.24512,-0.95215 2.23389,-1.86768 1.02539,-0.95215 1.64795,-1.75781 0,1.2085 0,2.19727 0.0366,0.98877 0.0366,1.90429 0,0.87891 0,1.83106 0.0366,0.95215 0.0366,2.12402 -0.80567,0.80567 -2.01416,1.72119 -1.17188,0.91553 -2.63672,1.83106 -1.42822,0.91552 -3.07617,1.75781 -1.61133,0.84228 -3.25928,1.50146 -1.64795,0.62256 -3.25928,1.0254 -1.61133,0.36621 -3.00293,0.36621 -1.3916,0 -2.38037,-0.54932 -0.98877,-0.54932 -1.72119,-1.53809 -0.6958,-0.98877 -1.2085,-2.34375 -0.47607,-1.3916 -0.84228,-3.07617 -1.31836,1.72119 -2.7832,3.18604 -1.46485,1.42822 -3.00293,2.49023 -1.50147,1.06201 -3.07618,1.68457 -1.53808,0.58594 -3.00292,0.58594 -1.2085,0 -2.27051,-0.40283 -1.06201,-0.40283 -1.9043,-1.35498 -0.80566,-0.95215 -1.28174,-2.49024 -0.47607,-1.5747 -0.47607,-3.88183 0,-2.81983 0.65918,-7.17774 0.6958,-4.35791 1.68457,-9.96094 0.0732,-0.54931 0.25635,-1.46484 0.21972,-0.95215 0.54931,-2.05078 0.36621,-1.09863 0.87891,-2.23389 0.51269,-1.13525 1.20849,-2.05078 0.69581,-0.91553 1.61133,-1.50146 0.95215,-0.58594 2.12403,-0.62256 1.94091,0.0732 2.7832,0.51269 0.84228,0.40284 0.84228,1.02539 -0.32959,1.94092 -0.73242,4.32129 -0.36621,2.38037 -0.76904,4.79737 -0.40283,2.41699 -0.76904,4.72412 -0.36621,2.27051 -0.65918,4.06494 -0.29297,1.79443 -0.47608,2.89307 -0.14648,1.09863 -0.14648,1.13525 0,0.65918 0.10986,1.28174 0.14649,0.58594 0.40283,1.06201 0.25635,0.47607 0.65918,0.76904 0.40284,0.29297 0.95215,0.29297 0.80567,0 1.64795,-0.40283 0.84229,-0.43945 1.57471,-1.2085 0.76904,-0.80566 1.35498,-1.94092 0.58594,-1.17187 0.8789,-2.63671 l 3.62549,-18.60352 q 0.18311,-0.87891 1.46485,-1.46484 1.31836,-0.62256 2.96631,-0.62256 1.86767,0 2.9663,0.65918 1.09864,0.65918 1.09864,1.68457 z"
         style="font-style:normal;font-variant:normal;font-weight:normal;font-stretch:normal;font-size:75px;font-family:Pacifico;-inkscape-font-specification:Pacifico;fill:#ffffff"
         id="path3371" />
      <path
         d="m 391.43485,498.07648 q -3.44238,0 -6.04248,-1.24512 -2.56347,-1.24512 -4.28467,-3.33252 -1.72119,-2.12402 -2.60009,-4.87061 -0.84229,-2.7832 -0.84229,-5.82275 0,-2.05078 0.40283,-4.32129 0.40284,-2.30713 1.2085,-4.50439 0.84228,-2.19727 2.0874,-4.17481 1.24512,-2.01416 2.89307,-3.51562 1.68457,-1.53809 3.73535,-2.41699 2.0874,-0.91553 4.61426,-0.91553 2.05078,0 3.80859,0.65918 1.75781,0.65918 3.03955,1.86767 1.31836,1.17188 2.05078,2.85645 0.73243,1.68457 0.73243,3.77197 0,2.27051 -1.13526,4.54102 -1.09863,2.27051 -3.07617,4.28467 -1.97754,2.01416 -4.72412,3.58886 -2.70996,1.57471 -5.896,2.45362 0.54932,0.98877 1.06201,1.64794 0.54932,0.65918 1.09864,1.0254 0.54931,0.36621 1.13525,0.51269 0.62256,0.14649 1.31836,0.14649 2.19727,0 4.61426,-0.87891 2.45361,-0.87891 4.76074,-2.19727 2.30713,-1.31836 4.35791,-2.85644 2.05078,-1.57471 3.479,-2.96631 l 4.72413,4.90723 q -3.22266,3.33252 -6.84815,5.89599 -1.57471,1.09863 -3.40576,2.16065 -1.79443,1.06201 -3.80859,1.90429 -1.97754,0.80567 -4.13819,1.31836 -2.12402,0.47608 -4.32129,0.47608 z m -4.8706,-17.21192 q 1.31836,0 2.85644,-0.65918 1.57471,-0.6958 2.89307,-1.75781 1.35498,-1.06201 2.27051,-2.30713 0.91552,-1.24512 0.91552,-2.41699 0,-1.64795 -0.62255,-2.70996 -0.58594,-1.06201 -1.46485,-1.06201 -1.57471,0 -2.70996,0.58593 -1.09863,0.58594 -1.86768,1.53809 -0.73242,0.91553 -1.20849,2.12402 -0.43945,1.17188 -0.6958,2.38038 -0.21973,1.20849 -0.29297,2.34375 -0.0732,1.13525 -0.0732,1.94091 z"
         style="font-style:normal;font-variant:normal;font-weight:normal;font-stretch:normal;font-size:75px;font-family:Pacifico;-inkscape-font-specification:Pacifico;fill:#ffffff"
         id="path3373" />
      <path
         d="m 443.2537,434.50226 q 5.96924,0 10.62012,0.98877 4.65088,0.98877 8.12988,2.74658 3.51563,1.75781 5.93262,4.21143 2.41699,2.41699 3.91845,5.31005 1.50147,2.85645 2.16065,6.07911 0.6958,3.22265 0.6958,6.59179 0,4.61426 -1.02539,9.375 -1.02539,4.72412 -2.96631,9.15528 -1.94092,4.43115 -4.79736,8.31298 -2.81983,3.88184 -6.48194,6.77491 -3.66211,2.89306 -8.05664,4.54101 -4.39453,1.68457 -9.48486,1.68457 -1.72119,0 -3.51563,-0.25634 -1.79443,-0.25635 -3.479,-0.69581 -1.68457,-0.43945 -3.18603,-0.98877 -1.50147,-0.54931 -2.63672,-1.13525 -0.47608,-0.14648 -0.76905,-0.32959 -0.25634,-0.21973 -0.40283,-0.47607 -0.14648,-0.29297 -0.1831,-0.6958 -0.0366,-0.40284 -0.0366,-1.02539 0,-6.07911 0.29296,-12.45118 0.32959,-6.37207 1.28174,-12.45117 0.95215,-6.0791 2.74658,-11.57226 1.79444,-5.52979 4.76075,-9.8877 2.60009,-1.79443 4.72412,-1.79443 2.67334,0 4.46777,3.00293 -1.68457,2.2705 -2.81982,5.05371 -1.13526,2.7832 -1.9043,5.85937 -0.76904,3.03955 -1.28174,6.22559 -0.51269,3.18603 -0.95215,6.22558 -0.51269,3.36915 -0.8789,5.78614 -0.32959,2.38037 -0.54932,4.1748 -0.1831,1.79444 -0.29297,3.14942 -0.0732,1.35498 -0.0732,2.63671 0,1.35499 0.0732,2.27051 0.10987,0.91553 0.43946,1.46485 0.36621,0.54931 1.06201,0.80566 0.73242,0.21973 1.94091,0.21973 3.66211,0 6.95801,-1.42823 3.2959,-1.46484 6.0791,-3.88183 2.78321,-2.45361 4.98047,-5.67627 2.23389,-3.22266 3.77198,-6.81152 1.5747,-3.58887 2.41699,-7.2876 0.84228,-3.73535 0.84228,-7.17774 0,-4.24804 -1.3916,-7.58056 -1.3916,-3.36914 -3.91846,-5.67627 -2.49023,-2.34375 -6.00586,-3.55225 -3.51562,-1.24512 -7.72705,-1.24512 -3.07617,0 -6.11572,0.36622 -3.00293,0.36621 -5.60303,1.13525 -2.56347,0.76904 -4.54101,1.97754 -1.94092,1.17187 -2.92969,2.81982 -2.67334,4.13819 -4.39453,6.40869 -1.72119,2.23389 -2.89307,2.23389 -1.61132,0 -1.61132,-3.69873 0,-3.58887 0.95214,-6.44531 0.91553,-2.85645 2.6001,-5.05371 1.64795,-2.23389 3.91846,-3.77198 2.30713,-1.5747 5.01709,-2.56347 2.74658,-1.02539 5.82275,-1.50147 3.07617,-0.47607 6.29883,-0.47607 z"
         style="font-style:normal;font-variant:normal;font-weight:normal;font-stretch:normal;font-size:75px;font-family:Pacifico;-inkscape-font-specification:Pacifico;fill:#ffffff"
         id="path3375" />
      <path
         d="m 496.68388,490.27618 q -1.31836,1.2085 -3.2959,2.6001 -1.94092,1.35498 -4.21143,2.52686 -2.27051,1.13525 -4.65088,1.90429 -2.34375,0.76905 -4.46777,0.76905 -1.9043,0 -3.22266,-0.5127 -1.28174,-0.54931 -2.0874,-1.50146 -0.80566,-0.95215 -1.17187,-2.30713 -0.32959,-1.3916 -0.32959,-3.03955 0,-2.30713 0.51269,-5.34668 0.54932,-3.07617 1.31836,-6.33545 0.76904,-3.2959 1.61133,-6.55518 0.87891,-3.25927 1.53808,-6.00586 0.25635,-0.95215 1.0254,-1.61132 0.76904,-0.69581 1.72119,-1.09864 0.98877,-0.43945 2.01416,-0.62256 1.06201,-0.21972 1.90429,-0.21972 1.53809,0 2.08741,0.58593 0.54931,0.54932 0.54931,1.50147 0,0.80566 -0.36621,2.34375 -0.36621,1.50146 -0.91553,3.44238 -0.54931,1.9043 -1.17187,4.13819 -0.62256,2.19726 -1.17188,4.43115 -0.54931,2.19726 -0.91552,4.32129 -0.36621,2.0874 -0.36621,3.77197 0,1.64795 0.36621,2.63672 0.36621,0.95215 1.50146,0.95215 1.31836,0 2.92969,-0.91553 1.61133,-0.91553 3.25928,-2.19727 1.64795,-1.31836 3.22265,-2.70996 1.57471,-1.3916 2.78321,-2.38037 l 0,7.43408 z M 480.31425,452.6297 q 0,-0.84229 0.36621,-1.9043 0.36621,-1.06201 1.17187,-1.97754 0.84229,-0.95214 2.19727,-1.5747 1.3916,-0.65918 3.44238,-0.65918 1.28174,0 2.41699,0.29297 1.13526,0.29296 1.97754,0.91552 0.84229,0.58594 1.31836,1.57471 0.5127,0.98877 0.5127,2.34375 0,1.24512 -0.40283,2.41699 -0.40284,1.17188 -1.28174,2.0874 -0.87891,0.91553 -2.23389,1.50147 -1.31836,0.54932 -3.18603,0.54932 -3.22266,0 -4.76075,-1.50147 -1.53808,-1.53808 -1.53808,-4.06494 z"
         style="font-style:normal;font-variant:normal;font-weight:normal;font-stretch:normal;font-size:75px;font-family:Pacifico;-inkscape-font-specification:Pacifico;fill:#ffffff"
         id="path3377" />
      <path
         d="m 532.35282,489.10431 q -0.84228,1.17187 -2.27051,2.74658 -1.3916,1.57471 -3.14941,3.00293 -1.75781,1.42822 -3.77197,2.41699 -2.01416,0.98877 -4.02832,0.98877 -2.417,0 -4.02832,-1.53808 -1.61133,-1.57471 -2.78321,-4.54102 -0.8789,1.02539 -2.16064,2.0874 -1.28174,1.06202 -2.81983,1.94092 -1.50146,0.84229 -3.14941,1.3916 -1.64795,0.54932 -3.2959,0.54932 -1.75781,0 -3.44238,-0.6958 -1.64795,-0.73242 -2.92969,-2.05078 -1.28174,-1.35498 -2.05078,-3.25928 -0.76904,-1.94092 -0.76904,-4.35791 0,-2.74658 0.76904,-5.63965 0.76904,-2.89307 2.12402,-5.63965 1.35498,-2.7832 3.18604,-5.23681 1.86767,-2.45362 4.06494,-4.28467 2.19727,-1.83106 4.61426,-2.89307 2.45361,-1.09863 4.98047,-1.09863 0.84228,0 1.31836,0.32959 0.47607,0.32959 0.76904,0.76904 0.32959,0.40283 0.62256,0.80567 0.29297,0.40283 0.73242,0.58593 0.43945,0.18311 0.87891,0.25635 0.47607,0.0366 0.95214,0.0366 0.40284,0 0.80567,0 0.43945,-0.0366 0.84228,-0.0366 0.54932,0 1.02539,0.10986 0.47608,0.10987 0.84229,0.47608 0.36621,0.36621 0.54932,1.02539 0.21972,0.65918 0.21972,1.79443 0,1.75782 -0.36621,3.91846 -0.36621,2.12402 -0.80566,4.39453 -0.43946,2.23389 -0.80567,4.5044 -0.36621,2.23388 -0.36621,4.24804 0,1.72119 0.29297,2.70996 0.32959,0.95215 1.35498,0.95215 0.76904,0 1.61133,-0.36621 0.84228,-0.40283 1.68457,-1.02539 0.87891,-0.62256 1.72119,-1.3916 0.87891,-0.80567 1.64795,-1.64795 1.79443,-1.97754 3.62549,-4.46777 l 1.75781,8.12988 z m -31.27441,-2.89307 q 0,0.91553 0.10986,1.79444 0.14648,0.84228 0.47607,1.53808 0.32959,0.65918 0.87891,1.09864 0.54932,0.40283 1.3916,0.40283 1.35498,0 2.45362,-1.17188 1.09863,-1.17187 1.90429,-2.81982 0.80567,-1.64795 1.28174,-3.40576 0.5127,-1.75782 0.65918,-2.92969 l 2.23389,-10.7666 q -1.50147,0 -2.92969,0.76904 -1.42822,0.73242 -2.70996,2.01416 -1.24512,1.28174 -2.30713,2.92969 -1.06201,1.64795 -1.83105,3.479 -0.76905,1.79444 -1.2085,3.62549 -0.40283,1.83105 -0.40283,3.44238 z"
         style="font-style:normal;font-variant:normal;font-weight:normal;font-stretch:normal;font-size:75px;font-family:Pacifico;-inkscape-font-specification:Pacifico;fill:#ffffff"
         id="path3379" />
      <path
         d="m 526.85966,484.01398 q 2.05078,-1.75782 3.33252,-2.92969 1.28174,-1.17188 2.19726,-2.12402 0.91553,-0.98877 1.64795,-1.97754 0.76904,-0.98877 1.79444,-2.34375 1.02539,-1.35498 2.49023,-3.2959 1.46484,-1.97754 3.80859,-4.90723 0.47608,-0.65918 1.06202,-1.28174 0.58593,-0.62255 1.28173,-1.09863 0.73243,-0.51269 1.57471,-0.80566 0.87891,-0.32959 1.94092,-0.32959 1.75781,0 2.70996,0.40283 0.95215,0.36621 1.3916,0.91553 0.43945,0.54931 0.5127,1.17187 0.0732,0.58594 0.0732,1.02539 0,0.87891 -0.6958,1.94092 -0.6958,1.06201 -1.53809,2.05078 -0.84228,0.98877 -1.61133,1.83106 -0.73242,0.80566 -0.84228,1.20849 0,1.13526 0.14648,2.0874 0.18311,0.91553 0.43946,1.83106 0.29296,0.87891 0.58593,1.9043 0.29297,0.98877 0.54932,2.30712 0.29297,1.31836 0.43945,3.03956 0.18311,1.72119 0.18311,4.06494 1.31836,-0.87891 2.81982,-1.57471 1.53809,-0.73242 3.18604,-1.50146 1.64795,-0.76905 3.36914,-1.68458 1.75781,-0.95214 3.51562,-2.2705 l 0.0366,8.20312 q -2.2705,1.75781 -5.27343,3.2959 -2.96631,1.53809 -6.26221,2.70996 -3.25928,1.17188 -6.62842,1.86768 -3.33252,0.65918 -6.33545,0.65918 -2.16064,0 -4.02832,-0.40284 -1.86767,-0.40283 -3.2959,-1.24511 -1.3916,-0.87891 -2.2705,-2.27051 -0.87891,-1.3916 -1.06202,-3.36914 -0.51269,0.10986 -1.02539,0.14648 -0.47607,0.0366 -0.95214,0.0366 -0.58594,0 -1.09864,-0.0366 -0.51269,-0.0366 -0.8789,-0.25634 -0.36621,-0.25635 -0.58594,-0.76905 -0.21973,-0.54931 -0.21973,-1.53808 0,-0.87891 0.43946,-1.61133 0.43945,-0.76904 1.02539,-1.35498 0.58593,-0.58594 1.17187,-1.02539 0.58594,-0.43946 0.87891,-0.6958 z m 4.6875,4.6875 q 0.43945,0 0.95215,0.54931 0.54931,0.54932 1.24511,1.2085 0.6958,0.65918 1.61133,1.2085 0.91553,0.54931 2.0874,0.54931 1.42823,0 2.34375,-0.47607 0.95215,-0.47608 1.50147,-1.24512 0.54931,-0.80566 0.76904,-1.83105 0.21973,-1.06202 0.21973,-2.19727 0,-0.98877 -0.14649,-2.01416 -0.10986,-1.02539 -0.32959,-1.94092 -0.1831,-0.95215 -0.43945,-1.75781 -0.21973,-0.84229 -0.40283,-1.42822 l -9.41162,9.375 z"
         style="font-style:normal;font-variant:normal;font-weight:normal;font-stretch:normal;font-size:75px;font-family:Pacifico;-inkscape-font-specification:Pacifico;fill:#ffffff"
         id="path3381" />
    </g>
  </g>
</svg>
